<svg height="128" viewBox="0 0 1024 1024" width="128" xmlns="http://www.w3.org/2000/svg"><path d="m909.135926 920.271544h-224.621851c-.206708-.684592-.446162-1.36509-.730641-2.037403l-50.870598-120.131031c37.015032-14.876826 70.860884-36.009122 100.236935-62.078871l21.500687 21.499663-24.105001 24.105001c-7.79043 7.79043-7.79043 20.421098 0 28.211529 3.895727 3.89368 8.999978 5.842055 14.105253 5.842055s10.209526-1.948375 14.105253-5.842055l76.41846-76.41846c7.79043-7.79043 7.79043-20.421098 0-28.211529-7.792477-7.788383-20.419052-7.788383-28.211529 0l-24.102954 24.102954-21.439288-21.439288c50.609655-56.55404 82.84073-129.873929 87.193875-210.493062h28.603455v33.911344c0 11.016915 8.931416 19.947308 19.947308 19.947308s19.947308-8.930393 19.947308-19.947308v-107.718326c0-11.016915-8.931416-19.947308-19.947308-19.947308s-19.947308 8.930393-19.947308 19.947308v33.911344h-28.754904c-4.828982-79.310324-36.633339-151.443178-86.342484-207.331046l20.738323-20.738323 24.102954 24.101931c3.895727 3.894703 8.999978 5.842055 14.105253 5.842055 5.106298 0 10.209526-1.948375 14.105253-5.843078 7.79043-7.79043 7.79043-20.420075 0-28.210505l-76.41846-76.416414c-7.792477-7.79043-20.419052-7.789407-28.211529.001023-7.79043 7.79043-7.79043 20.420075 0 28.210505l24.103978 24.102954-20.709671 20.709671c-56.417941-50.376341-129.473817-82.480526-209.794144-86.912465v-28.595269h33.911344c11.015891 0 19.947308-8.930393 19.947308-19.947308s-8.931416-19.947308-19.947308-19.947308l-107.715257.000001c-11.015891 0-19.947308 8.930393-19.947308 19.947308s8.931416 19.947308 19.947308 19.947308h33.911344v28.694529c-79.846536 4.76656-152.438854 36.870746-208.53343 87.070055l-20.966521-20.966521 24.102954-24.102954c7.79043-7.79043 7.79043-20.421098 0-28.211529-7.792477-7.79043-20.419052-7.79043-28.211529 0l-76.416414 76.416414c-7.79043 7.79043-7.79043 20.421098 0 28.211529 3.894703 3.894703 9.001001 5.842055 14.105253 5.842055s10.210549-1.947352 14.105253-5.842055l24.102954-24.102954 21.026896 21.026896c-49.562812 55.847959-81.264838 127.869273-86.085634 207.043497h-30.30419v-33.911344c0-11.016915-8.930393-19.947308-19.947308-19.947308s-19.947308 8.930393-19.947308 19.947308v107.717304c0 11.016915 8.930393 19.947308 19.947308 19.947308s19.947308-8.930393 19.947308-19.947308l.000001-33.910323h30.153764c4.344958 80.482009 36.475749 153.690358 86.938048 210.204489l-21.727861 21.727861-24.102954-24.102954c-7.79043-7.786337-20.421098-7.788383-28.210505 0-7.79043 7.79043-7.791453 20.421098-.001023 28.211529l76.416414 76.41846c3.895727 3.89368 8.999978 5.842055 14.105253 5.842055 5.104251 0 10.209526-1.948375 14.105253-5.842055 7.79043-7.79043 7.79043-20.421098 0-28.211529l-24.102954-24.103978 21.756513-21.756513c30.93557 27.514657 66.845431 49.541323 106.199741 64.549132l-47.684022 118.233821c-.229221.568958-.420579 1.144056-.594541 1.720178h-223.198434c-11.016915 0-19.947308 8.931416-19.947308 19.947308s8.930393 19.947308 19.947308 19.947308h797.907659c11.015891 0 19.947308-8.931416 19.947308-19.947308s-8.931417-19.947308-19.947308-19.947308zm-291.780413-158.905126-83.647095-197.532889c6.540973-2.212388 12.750395-5.145184 18.523889-8.725732l152.672168 152.671145c-25.744338 22.490224-55.294351 40.721447-87.548962 53.587476zm-162.436556-282.746666c0-27.600615 22.454408-50.053999 50.053999-50.053999 25.588795 0 46.739511 19.305695 49.687656 44.11473-.373507 1.52575-.593518 3.111874-.593518 4.753257 0 1.882883.278339 3.697205.766456 5.423523-2.160199 25.622564-23.688515 45.815465-49.860595 45.815465-27.59959 0-50.053998-22.453385-50.053998-50.052976zm29.331026 303.544341c-16.492626-1.11438-32.632211-3.532453-48.307216-7.182586l48.307216-119.777991zm39.895638-138.604778 55.108109 130.137942c-17.803481 4.483104-36.225039 7.385201-55.108109 8.565073zm209.030757 36.069497-152.511509-152.509463c5.760191-8.959046 9.983375-18.99154 12.273535-29.738301h215.703737c-4.256954 69.626777-32.029484 132.992966-75.465763 182.247764zm75.314313-222.143403h-216.101803c-2.295276-9.492188-6.094812-18.399045-11.140735-26.456558l152.629189-152.629189c42.54498 48.579414 69.903071 110.764709 74.613349 179.085747zm-102.796224-207.324906-152.553465 152.553465c-8.759501-5.579065-18.537192-9.685593-28.995381-11.965519v-215.772299c69.328995 4.332679 132.433219 31.978319 181.548846 75.184353zm-221.444484-75.086115v216.032218c-10.006911 2.369977-19.367093 6.411013-27.777647 11.819187l-152.510486-152.509463c48.792263-43.029003 111.431905-70.687946 180.288133-75.341942zm-208.438263 103.613845 152.671145 152.671145c-4.942569 7.969509-8.665357 16.764825-10.92891 26.126031h-216.099757c4.702092-68.184939 31.957853-130.260739 74.357522-178.797176zm-74.507948 218.692815h215.70169c2.261507 10.613732 6.407943 20.531616 12.059664 29.40675l-152.552442 152.552441c-43.289945-49.213865-70.960145-112.469537-75.208912-181.959191zm103.44807 210.142067 152.62919-152.628166c6.344498 3.972475 13.208836 7.184633 20.478404 9.488095l-80.229253 198.928679c-34.339086-12.989849-65.733097-32.015158-92.878341-55.788608zm116.113531 104.84386c20.467147 5.15951 41.657772 8.473999 63.384609 9.770528v30.312376h-33.911344c-11.015891 0-19.947308 8.931416-19.947308 19.947308s8.931416 19.947308 19.947308 19.947308h107.717304c11.015891 0 19.947308-8.931416 19.947308-19.947308s-8.931416-19.947308-19.947308-19.947308h-33.911344v-30.213116c24.365944-1.344624 48.058552-5.244444 70.827115-11.420097l46.350654 109.455901h-263.975136z" fill="#8a8a8a"/></svg>